<?xml version="1.0" encoding="utf-8"?>
<!-- Generator: Adobe Illustrator 27.9.4, SVG Export Plug-In . SVG Version: 9.03 Build 54784)  -->
<svg version="1.1" id="Layer_1" xmlns="http://www.w3.org/2000/svg" xmlns:xlink="http://www.w3.org/1999/xlink" x="0px" y="0px"
	 viewBox="0 0 271.12 85.28" style="enable-background:new 0 0 271.12 85.28;" xml:space="preserve">
<style type="text/css">
	.st0{fill:#2A60FE;}
	.st1{fill:#FFFFFF;}
</style>
<rect class="st0" width="271.12" height="85.28"/>
<g>
	<g>
		<path class="st1" d="M108.79,42.76c-0.13-0.51-0.26-1-0.43-1.48c-0.71-2.1-1.91-3.77-3.58-5.02c-1.67-1.25-3.93-1.87-6.78-1.87
			c-2.56,0-4.88,0.59-6.94,1.76c-2.07,1.17-3.7,2.8-4.91,4.89c-1.21,2.08-1.82,4.51-1.82,7.29c0,2.71,0.6,5.1,1.79,7.18
			c1.19,2.08,2.79,3.71,4.81,4.89c2.01,1.17,4.23,1.76,6.65,1.76c2.21,0,4.07-0.44,5.58-1.31c1.51-0.87,2.72-2,3.63-3.39
			c0.91-1.39,1.58-2.89,2-4.51v2.32c0,0.89,0.04,1.83,0.11,2.8c0.07,0.98,0.18,2.15,0.32,3.5h5.55v-26.6h-5.98V42.76z M107.69,52.92
			c-0.73,1.35-1.8,2.41-3.2,3.18c-1.41,0.77-3.11,1.15-5.1,1.15c-1.74,0-3.29-0.37-4.65-1.12c-1.35-0.75-2.41-1.8-3.18-3.15
			c-0.77-1.35-1.15-2.9-1.15-4.65c0-2.67,0.78-4.84,2.35-6.52c1.57-1.67,3.77-2.51,6.62-2.51c1.99,0,3.69,0.37,5.07,1.09
			c1.39,0.73,2.46,1.76,3.2,3.1c0.75,1.34,1.12,2.95,1.12,4.83C108.79,50.04,108.42,51.57,107.69,52.92z"/>
		<path class="st1" d="M146.45,25.25c-1.48,0.64-2.6,1.64-3.36,2.99c-0.77,1.35-1.15,3.1-1.15,5.23v1.82h-13.25v-0.43
			c0-1.25,0.2-2.2,0.61-2.86c0.41-0.66,0.99-1.12,1.74-1.39c0.75-0.27,1.6-0.38,2.56-0.35h3.36v-5.13h-4.43
			c-2.03,0-3.78,0.32-5.26,0.96c-1.48,0.64-2.6,1.64-3.36,2.99c-0.77,1.35-1.15,3.1-1.15,5.23v0.96h-5.23v4.81h5.23v21.47h5.93V40.1
			h13.25v21.47h5.93V40.1h8.17v-4.81h-8.17v-1.28c0-1.25,0.2-2.21,0.61-2.88c0.41-0.68,0.99-1.14,1.74-1.39
			c0.75-0.25,1.6-0.36,2.56-0.32h3.31v-5.13h-4.33C149.7,24.29,147.93,24.61,146.45,25.25z"/>
		<rect x="158.64" y="23.7" class="st1" width="7.1" height="5.71"/>
		<rect x="159.18" y="34.97" class="st1" width="5.98" height="26.6"/>
		<path class="st1" d="M195.07,36.98c-0.94-0.87-2.07-1.52-3.36-1.95c-1.3-0.43-2.72-0.64-4.25-0.64c-1.64,0-3.13,0.27-4.49,0.8
			c-1.35,0.53-2.53,1.27-3.52,2.22c-1,0.94-1.8,2.01-2.4,3.2c-0.33,0.66-0.6,1.34-0.8,2.04v-7.67h-5.93v26.6h5.93V45.8
			c0.26-0.83,0.66-1.62,1.23-2.36c0.89-1.16,2.04-2.1,3.44-2.83c1.41-0.73,2.96-1.09,4.67-1.09c2.24,0,3.89,0.53,4.94,1.58
			c1.05,1.05,1.58,2.66,1.58,4.83v15.65h5.93V44.75c0-1.74-0.26-3.26-0.77-4.54C196.74,38.93,196.01,37.85,195.07,36.98z"/>
		<rect x="202.85" y="34.97" class="st1" width="5.98" height="26.6"/>
		<rect x="202.32" y="23.7" class="st1" width="7.1" height="5.71"/>
		<path class="st1" d="M237,42.79c-0.41-1.63-1.05-3.07-1.92-4.31c-0.89-1.26-2.1-2.26-3.63-2.99c-1.53-0.73-3.42-1.09-5.66-1.09
			c-2.56,0-4.83,0.59-6.81,1.76c-1.98,1.17-3.54,2.8-4.7,4.89c-1.16,2.08-1.74,4.51-1.74,7.29c0,2.71,0.59,5.1,1.76,7.18
			c1.18,2.08,2.77,3.71,4.78,4.89c2.01,1.17,4.25,1.76,6.7,1.76c2.21,0,4.07-0.44,5.58-1.31c1.51-0.87,2.72-2,3.63-3.39
			c0.91-1.39,1.58-2.89,2-4.51v2.32c0,0.96,0.05,2.05,0.16,3.26c0.11,1.21,0.2,2.23,0.27,3.04h5.55V24.29H237V42.79z M235.9,52.92
			c-0.73,1.35-1.8,2.41-3.2,3.18c-1.41,0.77-3.11,1.15-5.1,1.15c-1.74,0-3.29-0.37-4.65-1.12c-1.35-0.75-2.41-1.8-3.18-3.15
			c-0.77-1.35-1.15-2.9-1.15-4.65c0-2.67,0.78-4.85,2.35-6.54c1.57-1.69,3.77-2.54,6.62-2.54c1.99,0,3.69,0.37,5.07,1.12
			c1.39,0.75,2.46,1.79,3.2,3.12c0.75,1.34,1.12,2.95,1.12,4.83C237,50.04,236.63,51.57,235.9,52.92z"/>
		<rect x="248.55" y="34.97" class="st1" width="5.98" height="26.6"/>
		<rect x="248.01" y="23.7" class="st1" width="7.1" height="5.71"/>
	</g>
	<g>
		<path class="st1" d="M22.02,58.1c4.08,4.28,9.84,6.94,16.22,6.94c6.38,0,12.13-2.67,16.22-6.94v0H22.02z"/>
		<path class="st1" d="M54.45,32.86H18.07c-1.04,2.15-1.75,4.48-2.07,6.94h38.44V32.86z"/>
		<path class="st1" d="M22.02,27.18h32.43v0c-4.08-4.28-9.84-6.94-16.22-6.94C31.86,20.23,26.1,22.9,22.02,27.18z"/>
		<path class="st1" d="M54.45,45.48H16.01c0.31,2.46,1.02,4.8,2.07,6.94h36.38V45.48z"/>
		<path class="st1" d="M60.46,39.8h8.92v-6.94H58.4C59.44,35,60.15,37.34,60.46,39.8z"/>
		<polygon class="st1" points="54.45,58.11 54.45,65.05 69.39,65.05 69.39,58.1 54.45,58.1 		"/>
		<path class="st1" d="M58.4,52.42h10.99v-6.94h-8.92C60.15,47.94,59.44,50.28,58.4,52.42z"/>
		<polygon class="st1" points="54.45,20.23 54.45,27.18 54.45,27.18 69.39,27.18 69.39,20.23 		"/>
	</g>
	<polygon class="st1" points="54.45,27.18 54.45,27.18 54.45,27.18 	"/>
	<polygon class="st1" points="54.45,58.1 54.45,58.11 54.45,58.1 	"/>
	<path class="st0" d="M60.46,39.8c-0.31-2.46-1.02-4.8-2.07-6.94c-1.02-2.1-2.36-4.01-3.95-5.68h0v5.68v6.94v5.68v6.94v5.68h0
		c1.59-1.67,2.93-3.58,3.95-5.68c1.04-2.15,1.75-4.48,2.07-6.94c0.12-0.93,0.18-1.88,0.18-2.84C60.64,41.68,60.58,40.73,60.46,39.8z
		"/>
</g>
</svg>
