<svg width="300" height="94" viewBox="0 0 300 94" fill="none" xmlns="http://www.w3.org/2000/svg">
<g filter="url(#filter0_i_2351_1162)">
<path d="M71.9892 21.3125C71.9732 21.0866 71.7103 20.9714 71.5332 21.1127L54.4749 34.7286C52.9496 36.0293 51.9828 37.9813 51.8304 40.0547L51.6845 54.3529C51.682 54.5899 51.9559 54.7235 52.1412 54.5756L58.7024 49.3384C59.5152 48.6897 59.9993 47.7147 60.0247 46.6751L60.0864 44.1556C60.1374 42.0765 61.1055 40.1264 62.731 38.829L71.2403 32.0369C72.053 31.3882 72.5371 30.4131 72.5626 29.3735L71.9892 21.3125Z" fill="white"/>
<path d="M52.7632 72.5964C52.7949 72.8206 53.0652 72.9172 53.232 72.7639L69.7499 57.5766C71.22 56.1342 72.071 54.0643 72.0786 51.9284L71.2024 37.2475C71.1883 37.0109 70.9058 36.8968 70.7313 37.0573L64.3701 42.906C63.5836 43.6292 63.1574 44.6632 63.2058 45.7304L63.3231 48.317C63.4199 50.4516 62.5674 52.5196 60.9945 53.9658L52.7601 61.5369C51.9736 62.26 51.5474 63.294 51.5958 64.3613L52.7632 72.5964Z" fill="white"/>
<path d="M27.7832 21.0757C27.7993 20.8498 28.0622 20.7345 28.2392 20.8758L45.2975 34.4917C46.8228 35.7925 47.7897 37.7445 47.9421 39.8179L48.088 54.1161C48.0904 54.3531 47.8166 54.4867 47.6313 54.3388L41.07 49.1016C40.2573 48.4529 39.7732 47.4778 39.7477 46.4383L39.686 43.9188C39.6351 41.8397 38.6669 39.8896 37.0415 38.5922L28.5322 31.8001C27.7194 31.1513 27.2354 30.1763 27.2099 29.1367L27.7832 21.0757Z" fill="white"/>
<path d="M47.0093 72.3596C46.9775 72.5838 46.7072 72.6804 46.5405 72.5271L30.0225 57.3398C28.5525 55.8974 27.7015 53.8275 27.6939 51.6916L28.57 37.0107C28.5841 36.7741 28.8666 36.66 29.0411 36.8204L35.4024 42.6692C36.1888 43.3923 36.6151 44.4263 36.5667 45.4936L36.4494 48.0802C36.3526 50.2148 37.2051 52.2828 38.778 53.729L47.0124 61.3C47.7988 62.0232 48.2251 63.0572 48.1767 64.1244L47.0093 72.3596Z" fill="white"/>
</g>
<path d="M101.68 37.92C101.957 37.92 102.203 38.0053 102.416 38.176C102.629 38.3253 102.779 38.528 102.864 38.784L109.84 60H106.512L101.008 42.24C100.923 41.92 100.837 41.6 100.752 41.28C100.667 40.96 100.581 40.6613 100.496 40.384H99.6C99.5147 40.6613 99.4293 40.96 99.344 41.28C99.2587 41.6 99.1627 41.92 99.056 42.24L93.552 60H90.256L97.232 38.784C97.3173 38.528 97.4667 38.3253 97.68 38.176C97.8933 38.0053 98.1387 37.92 98.416 37.92H101.68ZM105.648 50.624V53.28H94.384V50.624H105.648ZM115.886 37.92V55.328C115.886 56.0107 116.056 56.5227 116.398 56.864C116.739 57.184 117.262 57.344 117.966 57.344H125.87L126.03 59.808C124.6 59.9147 123.15 59.9787 121.678 60C120.206 60.0213 118.734 60.032 117.262 60.032C115.64 60.032 114.478 59.6373 113.774 58.848C113.07 58.0373 112.718 57.024 112.718 55.808V37.92H115.886ZM137.42 37.504C138.209 37.504 138.956 37.5253 139.66 37.568C140.385 37.6107 141.078 37.6853 141.74 37.792C142.422 37.8773 143.084 38.016 143.724 38.208L143.404 40.576C142.721 40.512 142.038 40.4693 141.356 40.448C140.694 40.4053 140.044 40.384 139.404 40.384C138.764 40.3627 138.145 40.352 137.548 40.352C136.417 40.352 135.457 40.4587 134.668 40.672C133.878 40.8853 133.249 41.3013 132.78 41.92C132.332 42.5387 132.001 43.424 131.788 44.576C131.574 45.728 131.468 47.232 131.468 49.088C131.468 51.2 131.606 52.8747 131.884 54.112C132.182 55.3493 132.662 56.2453 133.324 56.8C134.006 57.3547 134.913 57.632 136.044 57.632C136.833 57.632 137.548 57.5253 138.188 57.312C138.828 57.0987 139.425 56.8213 139.98 56.48C140.556 56.1173 141.1 55.7547 141.612 55.392L142.028 57.248C141.665 57.6747 141.142 58.144 140.46 58.656C139.798 59.1467 139.02 59.5627 138.124 59.904C137.228 60.2453 136.214 60.416 135.084 60.416C133.441 60.416 132.097 60.0107 131.052 59.2C130.028 58.3893 129.27 57.1413 128.78 55.456C128.31 53.7493 128.076 51.5627 128.076 48.896C128.076 45.9947 128.374 43.712 128.972 42.048C129.569 40.384 130.55 39.2107 131.916 38.528C133.281 37.8453 135.116 37.504 137.42 37.504ZM144.332 47.232V60H141.996L141.484 56.736L141.196 56.032V47.232H144.332ZM157.158 37.504C158.78 37.504 160.156 37.696 161.286 38.08C162.438 38.464 163.356 39.0933 164.038 39.968C164.721 40.8427 165.212 42.016 165.51 43.488C165.83 44.96 165.99 46.784 165.99 48.96C165.99 51.1147 165.83 52.9387 165.51 54.432C165.212 55.904 164.721 57.0773 164.038 57.952C163.356 58.8267 162.438 59.456 161.286 59.84C160.156 60.224 158.78 60.416 157.158 60.416C155.537 60.416 154.15 60.224 152.998 59.84C151.868 59.456 150.95 58.8267 150.246 57.952C149.564 57.0773 149.062 55.904 148.742 54.432C148.422 52.9387 148.262 51.1147 148.262 48.96C148.262 46.784 148.422 44.96 148.742 43.488C149.062 42.016 149.564 40.8427 150.246 39.968C150.95 39.0933 151.868 38.464 152.998 38.08C154.15 37.696 155.537 37.504 157.158 37.504ZM157.158 40.288C155.772 40.288 154.673 40.5547 153.862 41.088C153.052 41.6213 152.476 42.5173 152.134 43.776C151.814 45.0133 151.654 46.7413 151.654 48.96C151.654 51.1573 151.814 52.8853 152.134 54.144C152.476 55.4027 153.052 56.2987 153.862 56.832C154.673 57.3653 155.772 57.632 157.158 57.632C158.545 57.632 159.633 57.3653 160.422 56.832C161.233 56.2987 161.809 55.4027 162.15 54.144C162.492 52.8853 162.662 51.1573 162.662 48.96C162.662 46.7413 162.492 45.0133 162.15 43.776C161.809 42.5173 161.233 41.6213 160.422 41.088C159.633 40.5547 158.545 40.288 157.158 40.288ZM176.93 37.536C177.997 37.5573 179.096 37.6107 180.226 37.696C181.378 37.7813 182.52 37.952 183.65 38.208L183.426 40.48C182.509 40.4373 181.474 40.4053 180.322 40.384C179.192 40.3627 178.093 40.352 177.026 40.352C176.28 40.352 175.64 40.3733 175.106 40.416C174.573 40.4587 174.136 40.576 173.794 40.768C173.453 40.96 173.197 41.2693 173.026 41.696C172.877 42.1227 172.802 42.7093 172.802 43.456C172.802 44.5867 173.016 45.3867 173.442 45.856C173.869 46.304 174.562 46.6453 175.522 46.88L179.97 48.064C181.677 48.4907 182.85 49.216 183.49 50.24C184.13 51.2427 184.45 52.5973 184.45 54.304C184.45 55.584 184.301 56.6187 184.002 57.408C183.725 58.1973 183.277 58.8053 182.658 59.232C182.061 59.6587 181.282 59.9573 180.322 60.128C179.362 60.2987 178.221 60.384 176.898 60.384C176.173 60.384 175.213 60.352 174.018 60.288C172.824 60.224 171.448 60.0427 169.89 59.744L170.114 57.408C171.373 57.4507 172.397 57.4933 173.186 57.536C173.997 57.5573 174.69 57.568 175.266 57.568C175.842 57.568 176.418 57.568 176.994 57.568C178.061 57.568 178.904 57.4933 179.522 57.344C180.141 57.1733 180.578 56.8533 180.834 56.384C181.09 55.8933 181.218 55.1893 181.218 54.272C181.218 53.4827 181.122 52.864 180.93 52.416C180.76 51.968 180.472 51.6373 180.066 51.424C179.682 51.1893 179.181 50.9973 178.562 50.848L173.986 49.6C172.386 49.152 171.256 48.4267 170.594 47.424C169.933 46.4213 169.602 45.088 169.602 43.424C169.602 42.144 169.741 41.1093 170.018 40.32C170.317 39.5307 170.765 38.944 171.362 38.56C171.96 38.1547 172.717 37.888 173.634 37.76C174.552 37.6107 175.65 37.536 176.93 37.536ZM196.975 37.92V60H193.775V37.92H196.975ZM204.015 37.92V40.672H186.767V37.92H204.015ZM215.214 37.632C216.963 37.632 218.371 37.824 219.438 38.208C220.526 38.5707 221.315 39.2213 221.806 40.16C222.297 41.0773 222.542 42.368 222.542 44.032C222.542 45.2053 222.403 46.1867 222.126 46.976C221.849 47.7653 221.411 48.384 220.814 48.832C220.238 49.28 219.449 49.568 218.446 49.696V49.856C218.809 49.9413 219.171 50.112 219.534 50.368C219.897 50.624 220.238 50.976 220.558 51.424C220.878 51.8507 221.113 52.3947 221.262 53.056L223.342 60H219.95L218.03 53.12C217.774 52.3093 217.422 51.7333 216.974 51.392C216.526 51.0507 215.939 50.88 215.214 50.88C213.87 50.88 212.718 50.88 211.758 50.88C210.798 50.8587 209.987 50.8373 209.326 50.816C208.686 50.7947 208.163 50.784 207.758 50.784L207.854 48.224H215.15C216.195 48.2027 217.017 48.0853 217.614 47.872C218.211 47.6373 218.638 47.232 218.894 46.656C219.171 46.08 219.31 45.2693 219.31 44.224C219.31 43.1787 219.171 42.3787 218.894 41.824C218.638 41.248 218.211 40.8533 217.614 40.64C217.017 40.4053 216.195 40.288 215.15 40.288C213.358 40.288 211.811 40.2987 210.51 40.32C209.209 40.3413 208.334 40.352 207.886 40.352L207.438 37.92C208.249 37.8347 209.017 37.7707 209.742 37.728C210.467 37.6853 211.257 37.664 212.11 37.664C212.985 37.6427 214.019 37.632 215.214 37.632ZM210.606 37.92V60H207.438V37.92H210.606ZM236.368 37.92C236.645 37.92 236.89 38.0053 237.104 38.176C237.317 38.3253 237.466 38.528 237.552 38.784L244.528 60H241.2L235.696 42.24C235.61 41.92 235.525 41.6 235.44 41.28C235.354 40.96 235.269 40.6613 235.184 40.384H234.288C234.202 40.6613 234.117 40.96 234.032 41.28C233.946 41.6 233.85 41.92 233.744 42.24L228.24 60H224.944L231.92 38.784C232.005 38.528 232.154 38.3253 232.368 38.176C232.581 38.0053 232.826 37.92 233.104 37.92H236.368ZM240.336 50.624V53.28H229.072V50.624H240.336ZM255.312 37.536C256.272 37.536 257.094 37.5573 257.776 37.6C258.459 37.6427 259.088 37.7173 259.664 37.824C260.24 37.9093 260.838 38.0373 261.456 38.208L261.136 40.608C260.496 40.544 259.899 40.5013 259.344 40.48C258.79 40.4373 258.192 40.4053 257.552 40.384C256.934 40.3627 256.187 40.352 255.312 40.352C253.947 40.352 252.87 40.6187 252.08 41.152C251.291 41.6853 250.726 42.5813 250.384 43.84C250.064 45.0773 249.904 46.784 249.904 48.96C249.904 51.136 250.064 52.8533 250.384 54.112C250.726 55.3493 251.291 56.2347 252.08 56.768C252.87 57.3013 253.947 57.568 255.312 57.568C256.699 57.568 257.862 57.5467 258.8 57.504C259.76 57.44 260.688 57.344 261.584 57.216L261.904 59.616C260.966 59.8933 259.995 60.0853 258.992 60.192C258.011 60.32 256.784 60.384 255.312 60.384C253.179 60.384 251.462 60.0213 250.16 59.296C248.88 58.5493 247.952 57.344 247.376 55.68C246.8 54.016 246.512 51.776 246.512 48.96C246.512 46.144 246.8 43.904 247.376 42.24C247.952 40.576 248.88 39.3813 250.16 38.656C251.462 37.9093 253.179 37.536 255.312 37.536ZM273.944 37.92V60H270.744V37.92H273.944ZM280.984 37.92V40.672H263.736V37.92H280.984Z" fill="white"/>
<defs>
<filter id="filter0_i_2351_1162" x="19" y="20.5" width="61.7725" height="54.173" filterUnits="userSpaceOnUse" color-interpolation-filters="sRGB">
<feFlood flood-opacity="0" result="BackgroundImageFix"/>
<feBlend mode="normal" in="SourceGraphic" in2="BackgroundImageFix" result="shape"/>
<feColorMatrix in="SourceAlpha" type="matrix" values="0 0 0 0 0 0 0 0 0 0 0 0 0 0 0 0 0 0 127 0" result="hardAlpha"/>
<feOffset dy="1.5"/>
<feGaussianBlur stdDeviation="1.5"/>
<feComposite in2="hardAlpha" operator="arithmetic" k2="-1" k3="1"/>
<feColorMatrix type="matrix" values="0 0 0 0 0 0 0 0 0 0 0 0 0 0 0 0 0 0 0.25 0"/>
<feBlend mode="normal" in2="shape" result="effect1_innerShadow_2351_1162"/>
</filter>
</defs>
</svg>
